<svg width="1250" height="1250" viewBox="0 0 1250 1250" fill="none" xmlns="http://www.w3.org/2000/svg">
<g clip-path="url(#clip0_72_98)">
<path d="M1065.27 217.373C970.293 114.787 842.471 48.5875 703.881 30.2077C565.29 11.828 424.631 42.4216 306.195 116.705C187.759 190.989 98.9806 304.299 55.1913 437.069C11.4021 569.838 15.351 713.731 66.356 843.899C117.361 974.067 212.22 1082.34 334.552 1150.01C456.884 1217.69 599.009 1240.52 736.383 1214.57C873.757 1188.62 997.756 1115.51 1086.97 1007.87C1176.18 900.225 1225 764.81 1225 625.005L1070.55 625.004C1070.55 728.819 1034.29 829.376 968.046 909.308C901.8 989.24 809.722 1043.53 707.711 1062.8C605.7 1082.07 500.161 1065.12 409.32 1014.86C318.479 964.609 248.039 884.209 210.164 787.55C172.288 690.89 169.356 584.038 201.873 485.447C234.39 386.855 300.315 302.713 388.263 247.552C476.211 192.391 580.661 169.672 683.575 183.321C786.489 196.969 881.407 246.127 951.937 322.306L1065.27 217.373Z" fill="url(#paint0_linear_72_98)"/>
<path d="M1191.95 467.728L882.337 386.751L1134.96 152.818L1191.95 467.728Z" fill="#21A726"/>
<path d="M625 325C790.685 325 925 459.315 925 625C925 790.685 790.685 925 625 925C459.315 925 325 790.685 325 625C325 459.315 459.315 325 625 325ZM800.35 493C758.076 520.353 560.386 532.165 628.77 695.663C657.185 620.386 696.532 584.385 755.59 552.059C671.043 621.064 638.044 682.574 629.392 788.913C636.88 800.168 641.457 799.546 649.906 793.265C649.948 759.054 653.098 741.41 664.826 713.07C795.376 713.07 812.161 593.088 800.35 493ZM446 511.028C496.355 603.657 452.217 670.797 587.74 675.148C596.372 700.333 597.434 720.879 597.687 760.316C606.068 765.085 610.519 765.354 617.58 757.208C614.472 665.823 593.285 623.555 526.195 562.005C557.9 578.168 574.8 587.446 602.038 627.28C600.795 607.387 604.381 595.359 615.715 576.925C588.983 522.84 552.926 511.028 446 511.028Z" fill="#198B9F"/>
</g>
<defs>
<linearGradient id="paint0_linear_72_98" x1="177.686" y1="-166.687" x2="1384.09" y2="742.687" gradientUnits="userSpaceOnUse">
<stop offset="0.588392" stop-color="#21A91A"/>
<stop offset="0.82109" stop-color="#198B9F"/>
</linearGradient>
<clipPath id="clip0_72_98">
<rect width="1250" height="1250" fill="white"/>
</clipPath>
</defs>
</svg>
